# xmcd CD database file
#
# Track frame offsets:
#	150
#	18196
#	41791
#	61226
#	80821
#	101039
#	117474
#	132087
#	147850
#	169527
#	185711
#	201900
#	219847
#	240247
#	256347
#	273141
#	286835
#	309605
#
# Disc length: 4320 seconds
#
# Revision: 0
# Processed by: cddbd v1.5.1PL0 Copyright (c) Steve Scherf et al.
# Submitted via: CDex 1.51
#
DISCID=0010de12
DTITLE=Various Artist - America Latina - Paleo 2004
DYEAR=2004
DGENRE=Salsa
TTITLE0=Raul Paz - Mulata
TTITLE1=Orlando Poleo - Publicidad Gratuita
TTITLE2=Batata y su Rumba Palenquera - Arriba Voy, Abajo Vengo
TTITLE3=Petrona Martinez - La Vida Vale la Pena
TTITLE4=Minino Garay - Onomatopée
TTITLE5=Lenine - Quadro-Negro
TTITLE6=Dj Dolores - Santa Massa chegou !!!
TTITLE7=Silverio Pessoa - Nas Terras da Gente
TTITLE8=Trio Mocoto - Beleza! Beleza! Beleza!
TTITLE9=Panteon Rococo - La Carencia
TTITLE10=Astrid Hadad - La Tequilera
TTITLE11=Barbara Luna - India Morena
TTITLE12=Lhasa - Con Toda Palabra
TTITLE13=Lucy Acavedo - Acuarelas Criollas
TTITLE14=Tania Libertad - La cuerda floja
TTITLE15=William Vivanco - Babylon
TTITLE16=Eliades Ochoa - Estoy Como Nunca
TTITLE17=Oscar O'Leon - Frenesi
EXTD=YEAR: 2004
EXTT0=
EXTT1=
EXTT2=
EXTT3=
EXTT4=
EXTT5=
EXTT6=
EXTT7=
EXTT8=
EXTT9=
EXTT10=
EXTT11=
EXTT12=
EXTT13=
EXTT14=
EXTT15=
EXTT16=
EXTT17=
PLAYORDER=
